<svg width="16" height="16" viewBox="0 0 16 16" fill="none" xmlns="http://www.w3.org/2000/svg">
<g clip-path="url(#clip0_22_175)">
<path d="M15.4133 6.60666L12.8333 3.99999C12.7714 3.93751 12.6976 3.88791 12.6164 3.85407C12.5351 3.82022 12.448 3.8028 12.36 3.8028C12.272 3.8028 12.1849 3.82022 12.1036 3.85407C12.0224 3.88791 11.9486 3.93751 11.8867 3.99999C11.7625 4.1249 11.6928 4.29387 11.6928 4.46999C11.6928 4.64612 11.7625 4.81509 11.8867 4.93999L14.26 7.33332H0.666666C0.489855 7.33332 0.320286 7.40356 0.195262 7.52859C0.0702379 7.65361 0 7.82318 0 7.99999H0C0 8.1768 0.0702379 8.34637 0.195262 8.47139C0.320286 8.59642 0.489855 8.66666 0.666666 8.66666H14.3L11.8867 11.0733C11.8242 11.1353 11.7746 11.209 11.7407 11.2903C11.7069 11.3715 11.6895 11.4586 11.6895 11.5467C11.6895 11.6347 11.7069 11.7218 11.7407 11.803C11.7746 11.8843 11.8242 11.958 11.8867 12.02C11.9486 12.0825 12.0224 12.1321 12.1036 12.1659C12.1849 12.1998 12.272 12.2172 12.36 12.2172C12.448 12.2172 12.5351 12.1998 12.6164 12.1659C12.6976 12.1321 12.7714 12.0825 12.8333 12.02L15.4133 9.43332C15.7879 9.05832 15.9982 8.54999 15.9982 8.01999C15.9982 7.48999 15.7879 6.98166 15.4133 6.60666Z" fill="#292221"/>
</g>
<defs>
<clipPath id="clip0_22_175">
<rect width="16" height="16" fill="white"/>
</clipPath>
</defs>
</svg>
