<svg width="12" height="12" viewBox="0 0 12 12" fill="none" xmlns="http://www.w3.org/2000/svg">
<g clip-path="url(#clip0_187_606)">
<path d="M9.49987 1.00001H4.97787C4.59697 0.998835 4.22092 1.0853 3.87879 1.25272C3.53667 1.42014 3.23765 1.66403 3.00486 1.96551L0.104859 5.69301C0.0365814 5.78078 -0.000488281 5.88881 -0.000488281 6.00001C-0.000488281 6.11121 0.0365814 6.21924 0.104859 6.30701L3.00486 10.0345C3.23765 10.336 3.53667 10.5799 3.87879 10.7473C4.22092 10.9147 4.59697 11.0012 4.97787 11H9.49987C10.1627 10.9992 10.7981 10.7356 11.2668 10.2669C11.7354 9.79822 11.9991 9.1628 11.9999 8.5V3.50001C11.9991 2.83721 11.7354 2.20179 11.2668 1.73312C10.7981 1.26445 10.1627 1.00081 9.49987 1.00001ZM10.9999 8.5C10.9999 8.89783 10.8418 9.27936 10.5605 9.56066C10.2792 9.84197 9.8977 10 9.49987 10H4.97787C4.74932 10.0008 4.52365 9.94899 4.31834 9.84859C4.11303 9.74818 3.93357 9.60188 3.79386 9.421L1.13336 6.00001L3.79386 2.57901C3.93357 2.39813 4.11303 2.25183 4.31834 2.15143C4.52365 2.05103 4.74932 1.99922 4.97787 2.00001H9.49987C9.8977 2.00001 10.2792 2.15805 10.5605 2.43935C10.8418 2.72065 10.9999 3.10219 10.9999 3.50001V8.5ZM8.60337 5.10351L7.70687 6.00001L8.60337 6.89651C8.65113 6.94263 8.68922 6.9978 8.71542 7.0588C8.74162 7.11981 8.75542 7.18542 8.756 7.25181C8.75657 7.3182 8.74392 7.38403 8.71878 7.44548C8.69364 7.50693 8.65651 7.56276 8.60957 7.6097C8.56262 7.65665 8.50679 7.69378 8.44535 7.71892C8.3839 7.74406 8.31806 7.75671 8.25167 7.75613C8.18528 7.75555 8.11967 7.74176 8.05867 7.71556C7.99767 7.68935 7.94249 7.65126 7.89637 7.60351L6.99987 6.70701L6.10337 7.60351C6.00907 7.69458 5.88276 7.74498 5.75167 7.74384C5.62057 7.7427 5.49516 7.69012 5.40246 7.59741C5.30975 7.50471 5.25717 7.3793 5.25603 7.24821C5.25489 7.11711 5.30529 6.99081 5.39637 6.89651L6.29287 6.00001L5.39637 5.10351C5.30529 5.00921 5.25489 4.88291 5.25603 4.75181C5.25717 4.62071 5.30975 4.4953 5.40246 4.4026C5.49516 4.3099 5.62057 4.25731 5.75167 4.25617C5.88276 4.25503 6.00907 4.30543 6.10337 4.39651L6.99987 5.29301L7.89637 4.39651C7.99067 4.30543 8.11697 4.25503 8.24807 4.25617C8.37917 4.25731 8.50457 4.3099 8.59728 4.4026C8.68998 4.4953 8.74257 4.62071 8.74371 4.75181C8.74485 4.88291 8.69445 5.00921 8.60337 5.10351Z" fill="white"/>
</g>
<defs>
<clipPath id="clip0_187_606">
<rect width="12" height="12" fill="white"/>
</clipPath>
</defs>
</svg>
