<svg width="16" height="16" viewBox="0 0 16 16" fill="none" xmlns="http://www.w3.org/2000/svg">
<g clip-path="url(#clip0_44_128)">
<path d="M1.33333 9.33335C2.06971 9.33335 2.66667 8.73639 2.66667 8.00001C2.66667 7.26363 2.06971 6.66667 1.33333 6.66667C0.596954 6.66667 0 7.26363 0 8.00001C0 8.73639 0.596954 9.33335 1.33333 9.33335Z" fill="#292221"/>
<path d="M8.00009 9.33335C8.73647 9.33335 9.33342 8.73639 9.33342 8.00001C9.33342 7.26363 8.73647 6.66667 8.00009 6.66667C7.2637 6.66667 6.66675 7.26363 6.66675 8.00001C6.66675 8.73639 7.2637 9.33335 8.00009 9.33335Z" fill="#292221"/>
<path d="M14.6666 9.33335C15.403 9.33335 15.9999 8.73639 15.9999 8.00001C15.9999 7.26363 15.403 6.66667 14.6666 6.66667C13.9302 6.66667 13.3333 7.26363 13.3333 8.00001C13.3333 8.73639 13.9302 9.33335 14.6666 9.33335Z" fill="#292221"/>
</g>
<defs>
<clipPath id="clip0_44_128">
<rect width="16" height="16" fill="white"/>
</clipPath>
</defs>
</svg>
