<svg width="72" height="72" viewBox="0 0 72 72" fill="none" xmlns="http://www.w3.org/2000/svg">
<path d="M57 6H54V3C54 2.20435 53.6839 1.44129 53.1213 0.87868C52.5587 0.316071 51.7957 0 51 0C50.2043 0 49.4413 0.316071 48.8787 0.87868C48.3161 1.44129 48 2.20435 48 3V6H24V3C24 2.20435 23.6839 1.44129 23.1213 0.87868C22.5587 0.316071 21.7956 0 21 0C20.2044 0 19.4413 0.316071 18.8787 0.87868C18.3161 1.44129 18 2.20435 18 3V6H15C11.0232 6.00476 7.21067 7.58665 4.39866 10.3987C1.58665 13.2107 0.00476357 17.0232 0 21L0 57C0.00476357 60.9768 1.58665 64.7893 4.39866 67.6013C7.21067 70.4134 11.0232 71.9952 15 72H57C60.9768 71.9952 64.7893 70.4134 67.6013 67.6013C70.4134 64.7893 71.9952 60.9768 72 57V21C71.9952 17.0232 70.4134 13.2107 67.6013 10.3987C64.7893 7.58665 60.9768 6.00476 57 6ZM6 21C6 18.6131 6.94821 16.3239 8.63604 14.636C10.3239 12.9482 12.6131 12 15 12H57C59.3869 12 61.6761 12.9482 63.364 14.636C65.0518 16.3239 66 18.6131 66 21V24H6V21ZM57 66H15C12.6131 66 10.3239 65.0518 8.63604 63.364C6.94821 61.6761 6 59.3869 6 57V30H66V57C66 59.3869 65.0518 61.6761 63.364 63.364C61.6761 65.0518 59.3869 66 57 66Z" fill="#292221" fill-opacity="0.5"/>
</svg>
