<svg width="16" height="16" viewBox="0 0 16 16" fill="none" xmlns="http://www.w3.org/2000/svg">
<g clip-path="url(#clip0_52_232)">
<path d="M12.6667 0H3.33333C2.4496 0.00105857 1.60237 0.352588 0.97748 0.97748C0.352588 1.60237 0.00105857 2.4496 0 3.33333L0 12.6667C0.00105857 13.5504 0.352588 14.3976 0.97748 15.0225C1.60237 15.6474 2.4496 15.9989 3.33333 16H12.6667C13.5504 15.9989 14.3976 15.6474 15.0225 15.0225C15.6474 14.3976 15.9989 13.5504 16 12.6667V3.33333C15.9989 2.4496 15.6474 1.60237 15.0225 0.97748C14.3976 0.352588 13.5504 0.00105857 12.6667 0V0ZM3.33333 1.33333H12.6667C13.1971 1.33333 13.7058 1.54405 14.0809 1.91912C14.456 2.29419 14.6667 2.8029 14.6667 3.33333V12.6667C14.6655 12.9637 14.5971 13.2565 14.4667 13.5233L8.358 7.41467C8.04846 7.10504 7.68096 6.85944 7.27648 6.69186C6.87201 6.52429 6.43848 6.43805 6.00067 6.43805C5.56285 6.43805 5.12933 6.52429 4.72485 6.69186C4.32038 6.85944 3.95287 7.10504 3.64333 7.41467L1.33333 9.724V3.33333C1.33333 2.8029 1.54405 2.29419 1.91912 1.91912C2.29419 1.54405 2.8029 1.33333 3.33333 1.33333ZM3.33333 14.6667C2.8029 14.6667 2.29419 14.456 1.91912 14.0809C1.54405 13.7058 1.33333 13.1971 1.33333 12.6667V11.6093L4.58533 8.35733C4.77107 8.17148 4.9916 8.02405 5.23434 7.92346C5.47707 7.82287 5.73725 7.77109 6 7.77109C6.26275 7.77109 6.52293 7.82287 6.76566 7.92346C7.0084 8.02405 7.22893 8.17148 7.41467 8.35733L13.5233 14.4667C13.2565 14.5971 12.9637 14.6655 12.6667 14.6667H3.33333Z" fill="#292221"/>
<path d="M10.6666 7C11.1281 7 11.5792 6.86315 11.9629 6.60676C12.3466 6.35037 12.6457 5.98595 12.8223 5.55959C12.9989 5.13323 13.0451 4.66407 12.9551 4.21145C12.8651 3.75883 12.6428 3.34307 12.3165 3.01675C11.9902 2.69042 11.5744 2.4682 11.1218 2.37816C10.6692 2.28813 10.2 2.33434 9.77366 2.51094C9.3473 2.68755 8.98288 2.98662 8.72649 3.37033C8.4701 3.75405 8.33325 4.20517 8.33325 4.66666C8.33325 5.2855 8.57908 5.87899 9.01667 6.31658C9.45425 6.75416 10.0477 7 10.6666 7ZM10.6666 3.66666C10.8644 3.66666 11.0577 3.72531 11.2222 3.83519C11.3866 3.94507 11.5148 4.10125 11.5905 4.28398C11.6662 4.46671 11.686 4.66777 11.6474 4.86175C11.6088 5.05573 11.5135 5.23392 11.3737 5.37377C11.2338 5.51362 11.0557 5.60886 10.8617 5.64745C10.6677 5.68603 10.4666 5.66623 10.2839 5.59054C10.1012 5.51485 9.945 5.38668 9.83512 5.22223C9.72523 5.05778 9.66659 4.86444 9.66659 4.66666C9.66659 4.40145 9.77194 4.14709 9.95948 3.95956C10.147 3.77202 10.4014 3.66666 10.6666 3.66666Z" fill="#292221"/>
</g>
<defs>
<clipPath id="clip0_52_232">
<rect width="16" height="16" fill="white"/>
</clipPath>
</defs>
</svg>
