<svg width="16" height="16" viewBox="0 0 16 16" fill="none" xmlns="http://www.w3.org/2000/svg">
<g clip-path="url(#clip0_20_69)">
<path d="M4.66667 14.6667H3.33333C2.8029 14.6667 2.29419 14.456 1.91912 14.0809C1.54405 13.7058 1.33333 13.1971 1.33333 12.6667V3.33333C1.33333 2.8029 1.54405 2.29419 1.91912 1.91912C2.29419 1.54405 2.8029 1.33333 3.33333 1.33333H4.66667C4.84348 1.33333 5.01305 1.2631 5.13807 1.13807C5.2631 1.01305 5.33333 0.843478 5.33333 0.666667C5.33333 0.489856 5.2631 0.320286 5.13807 0.195262C5.01305 0.0702379 4.84348 0 4.66667 0L3.33333 0C2.4496 0.00105857 1.60237 0.352588 0.97748 0.97748C0.352588 1.60237 0.00105857 2.4496 0 3.33333L0 12.6667C0.00105857 13.5504 0.352588 14.3976 0.97748 15.0225C1.60237 15.6474 2.4496 15.9989 3.33333 16H4.66667C4.84348 16 5.01305 15.9298 5.13807 15.8047C5.2631 15.6797 5.33333 15.5101 5.33333 15.3333C5.33333 15.1565 5.2631 14.987 5.13807 14.8619C5.01305 14.7369 4.84348 14.6667 4.66667 14.6667Z" fill="#292221"/>
<path d="M15.3333 7.33333L4.81529 7.35466C4.87376 7.24606 4.94689 7.14601 5.03262 7.05733L7.61862 4.47133C7.6823 4.40983 7.73309 4.33627 7.76802 4.25493C7.80296 4.17359 7.82135 4.08611 7.82212 3.99759C7.82289 3.90907 7.80603 3.82129 7.77251 3.73936C7.73898 3.65743 7.68948 3.58299 7.62689 3.5204C7.56429 3.4578 7.48986 3.4083 7.40793 3.37478C7.326 3.34126 7.23821 3.32439 7.14969 3.32516C7.06117 3.32593 6.97369 3.34432 6.89235 3.37926C6.81102 3.4142 6.73746 3.46499 6.67596 3.52866L4.08863 6.11466C3.5887 6.61473 3.30786 7.29289 3.30786 7.99999C3.30786 8.7071 3.5887 9.38525 4.08863 9.88533L6.67462 12.4713C6.73612 12.535 6.80969 12.5858 6.89102 12.6207C6.97236 12.6557 7.05984 12.6741 7.14836 12.6748C7.23688 12.6756 7.32466 12.6587 7.40659 12.6252C7.48852 12.5917 7.56296 12.5422 7.62555 12.4796C7.68815 12.417 7.73765 12.3426 7.77117 12.2606C7.80469 12.1787 7.82156 12.0909 7.82079 12.0024C7.82002 11.9139 7.80163 11.8264 7.76669 11.7451C7.73175 11.6637 7.68096 11.5902 7.61729 11.5287L5.03129 8.94266C4.95668 8.86583 4.89155 8.78033 4.83729 8.68799L15.3333 8.66666C15.5101 8.66666 15.6797 8.59642 15.8047 8.4714C15.9297 8.34637 16 8.17681 16 7.99999C16 7.82318 15.9297 7.65361 15.8047 7.52859C15.6797 7.40357 15.5101 7.33333 15.3333 7.33333Z" fill="#292221"/>
</g>
<defs>
<clipPath id="clip0_20_69">
<rect width="16" height="16" fill="white"/>
</clipPath>
</defs>
</svg>
