<svg width="16" height="16" viewBox="0 0 16 16" fill="none" xmlns="http://www.w3.org/2000/svg">
<g clip-path="url(#clip0_44_194)">
<path d="M15.8908 5.86265C15.7545 5.42858 15.482 5.04993 15.1138 4.78267C14.7456 4.51542 14.3011 4.37376 13.8462 4.37865H10.9335L10.0488 1.62132C9.90969 1.18729 9.63632 0.808665 9.26812 0.540033C8.89992 0.271401 8.45592 0.126648 8.00014 0.126648C7.54436 0.126648 7.10036 0.271401 6.73216 0.540033C6.36396 0.808665 6.09059 1.18729 5.95147 1.62132L5.0668 4.37865H2.15413C1.70063 4.3793 1.25893 4.52324 0.892117 4.78992C0.525308 5.0566 0.252156 5.43238 0.111676 5.86358C-0.0288034 6.29477 -0.0294252 6.75934 0.1099 7.19091C0.249225 7.62248 0.52137 7.99899 0.887463 8.26665L3.25813 9.99998L2.3568 12.7913C2.21114 13.2242 2.2093 13.6926 2.35154 14.1267C2.49378 14.5608 2.7725 14.9372 3.14613 15.2C3.51337 15.4712 3.9584 15.6164 4.41491 15.6142C4.87141 15.6119 5.31497 15.4622 5.67947 15.1873L8.00014 13.4793L10.3215 15.1853C10.6881 15.4549 11.1307 15.6014 11.5857 15.6036C12.0408 15.6058 12.4848 15.4637 12.854 15.1976C13.2232 14.9316 13.4985 14.5553 13.6403 14.123C13.7822 13.6906 13.7833 13.2244 13.6435 12.7913L12.7422 9.99998L15.1155 8.26665C15.4858 8.00235 15.7611 7.62585 15.9007 7.19288C16.0404 6.75991 16.0369 6.29349 15.8908 5.86265ZM14.3288 7.18998L11.5661 9.20932C11.4527 9.29209 11.3682 9.4086 11.3249 9.5422C11.2816 9.67581 11.2815 9.81969 11.3248 9.95331L12.3748 13.2C12.4279 13.3646 12.4275 13.5419 12.3735 13.7063C12.3195 13.8707 12.2148 14.0138 12.0744 14.1149C11.934 14.216 11.7652 14.27 11.5922 14.2691C11.4191 14.2683 11.2508 14.2125 11.1115 14.11L8.39481 12.11C8.28039 12.0259 8.14212 11.9806 8.00014 11.9806C7.85817 11.9806 7.7199 12.0259 7.60548 12.11L4.8888 14.11C4.74953 14.2139 4.58076 14.2708 4.40698 14.2724C4.2332 14.274 4.06343 14.2201 3.92229 14.1187C3.78115 14.0173 3.67597 13.8736 3.622 13.7084C3.56803 13.5432 3.56808 13.3651 3.62214 13.2L4.67547 9.95331C4.71875 9.81969 4.71872 9.67581 4.67538 9.5422C4.63204 9.4086 4.54761 9.29209 4.43414 9.20932L1.67146 7.18998C1.53233 7.08811 1.42895 6.94488 1.37609 6.78075C1.32323 6.61661 1.32359 6.43997 1.37712 6.27605C1.43065 6.11213 1.53461 5.96932 1.67416 5.86802C1.8137 5.76672 1.98169 5.71211 2.15413 5.71199H5.55414C5.69528 5.71198 5.83278 5.66718 5.94684 5.58403C6.06089 5.50089 6.14562 5.38369 6.18881 5.24932L7.22214 2.02865C7.27518 1.86385 7.37915 1.72012 7.51908 1.61815C7.659 1.51619 7.82767 1.46126 8.00081 1.46126C8.17394 1.46126 8.34261 1.51619 8.48254 1.61815C8.62247 1.72012 8.72644 1.86385 8.77948 2.02865L9.81281 5.24932C9.856 5.38369 9.94073 5.50089 10.0548 5.58403C10.1688 5.66718 10.3063 5.71198 10.4475 5.71199H13.8475C14.0199 5.71211 14.1879 5.76672 14.3275 5.86802C14.467 5.96932 14.571 6.11213 14.6245 6.27605C14.678 6.43997 14.6784 6.61661 14.6255 6.78075C14.5727 6.94488 14.4693 7.08811 14.3302 7.18998H14.3288Z" fill="#292221"/>
</g>
<defs>
<clipPath id="clip0_44_194">
<rect width="16" height="16" fill="white"/>
</clipPath>
</defs>
</svg>
