<svg width="16" height="16" viewBox="0 0 16 16" fill="none" xmlns="http://www.w3.org/2000/svg">
<g clip-path="url(#clip0_44_356)">
<path d="M15.8906 5.86267C15.7542 5.4286 15.4818 5.04994 15.1135 4.78269C14.7453 4.51544 14.3009 4.37378 13.8459 4.37867H10.9332L10.0486 1.62134C9.90945 1.18731 9.63608 0.80868 9.26788 0.540048C8.89968 0.271416 8.45568 0.126663 7.9999 0.126663C7.54412 0.126663 7.10012 0.271416 6.73192 0.540048C6.36372 0.80868 6.09035 1.18731 5.95123 1.62134L5.06656 4.37867H2.15389C1.70038 4.37931 1.25868 4.52326 0.891873 4.78994C0.525064 5.05662 0.251912 5.43239 0.111432 5.86359C-0.0290475 6.29479 -0.0296693 6.75935 0.109656 7.19093C0.248981 7.6225 0.521126 7.999 0.887219 8.26666L3.25789 10L2.35656 12.7913C2.2109 13.2243 2.20905 13.6927 2.35129 14.1267C2.49354 14.5608 2.77225 14.9372 3.14589 15.2C3.51313 15.4712 3.95815 15.6165 4.41466 15.6142C4.87117 15.6119 5.31472 15.4622 5.67923 15.1873L7.9999 13.4793L10.3212 15.1853C10.6878 15.455 11.1304 15.6014 11.5855 15.6036C12.0405 15.6058 12.4846 15.4637 12.8538 15.1977C13.2229 14.9316 13.4982 14.5554 13.6401 14.123C13.782 13.6906 13.7831 13.2244 13.6432 12.7913L12.7419 10L15.1152 8.26666C15.4855 8.00236 15.7609 7.62586 15.9005 7.19289C16.0401 6.75993 16.0367 6.2935 15.8906 5.86267Z" fill="#F2C94C"/>
</g>
<defs>
<clipPath id="clip0_44_356">
<rect width="16" height="16" fill="white"/>
</clipPath>
</defs>
</svg>
