<svg width="12" height="12" viewBox="0 0 12 12" fill="none" xmlns="http://www.w3.org/2000/svg">
<path d="M3.75 6.5C3.30499 6.5 2.86998 6.36804 2.49997 6.12081C2.12996 5.87357 1.84157 5.52217 1.67127 5.11104C1.50097 4.6999 1.45642 4.2475 1.54323 3.81105C1.63005 3.37459 1.84434 2.97368 2.15901 2.65901C2.47368 2.34434 2.87459 2.13005 3.31105 2.04323C3.7475 1.95642 4.1999 2.00097 4.61104 2.17127C5.02217 2.34157 5.37357 2.62996 5.62081 2.99997C5.86804 3.36998 6 3.80499 6 4.25C5.99934 4.84653 5.76207 5.41845 5.34026 5.84026C4.91845 6.26207 4.34653 6.49934 3.75 6.5V6.5ZM3.75 3C3.50277 3 3.2611 3.07331 3.05554 3.21066C2.84998 3.34802 2.68976 3.54324 2.59515 3.77165C2.50054 4.00005 2.47579 4.25139 2.52402 4.49386C2.57225 4.73634 2.6913 4.95907 2.86612 5.13388C3.04093 5.3087 3.26366 5.42775 3.50614 5.47598C3.74861 5.52421 3.99995 5.49946 4.22835 5.40485C4.45676 5.31024 4.65199 5.15002 4.78934 4.94446C4.92669 4.7389 5 4.49723 5 4.25C5 3.91848 4.8683 3.60054 4.63388 3.36612C4.39946 3.1317 4.08152 3 3.75 3ZM7.5 11.5V11.25C7.5 10.2554 7.10491 9.30161 6.40165 8.59835C5.69839 7.89509 4.74456 7.5 3.75 7.5C2.75544 7.5 1.80161 7.89509 1.09835 8.59835C0.395088 9.30161 0 10.2554 0 11.25L0 11.5C0 11.6326 0.0526784 11.7598 0.146447 11.8536C0.240215 11.9473 0.367392 12 0.5 12C0.632608 12 0.759785 11.9473 0.853553 11.8536C0.947322 11.7598 1 11.6326 1 11.5V11.25C1 10.5207 1.28973 9.82118 1.80546 9.30546C2.32118 8.78973 3.02065 8.5 3.75 8.5C4.47935 8.5 5.17882 8.78973 5.69454 9.30546C6.21027 9.82118 6.5 10.5207 6.5 11.25V11.5C6.5 11.6326 6.55268 11.7598 6.64645 11.8536C6.74021 11.9473 6.86739 12 7 12C7.13261 12 7.25979 11.9473 7.35355 11.8536C7.44732 11.7598 7.5 11.6326 7.5 11.5ZM12 9C12 8.32434 11.8044 7.66313 11.4369 7.09618C11.0693 6.52924 10.5455 6.08079 9.92872 5.80498C9.31192 5.52918 8.62847 5.43779 7.96088 5.54187C7.29328 5.64594 6.67008 5.94103 6.1665 6.3915C6.11688 6.4351 6.0764 6.4881 6.04738 6.54743C6.01836 6.60677 6.00139 6.67127 5.99744 6.7372C5.99349 6.80313 6.00264 6.8692 6.02437 6.93157C6.0461 6.99395 6.07997 7.0514 6.12403 7.10061C6.16809 7.14982 6.22146 7.18981 6.28106 7.21828C6.34066 7.24674 6.40532 7.26312 6.47128 7.26645C6.53725 7.26979 6.60322 7.26003 6.66539 7.23772C6.72757 7.21542 6.7847 7.18101 6.8335 7.1365C7.19323 6.81481 7.63837 6.60411 8.1152 6.52983C8.59203 6.45555 9.08018 6.52087 9.52071 6.7179C9.96123 6.91493 10.3353 7.23525 10.5978 7.6402C10.8603 8.04515 11 8.51742 11 9C11 9.13261 11.0527 9.25979 11.1464 9.35355C11.2402 9.44732 11.3674 9.5 11.5 9.5C11.6326 9.5 11.7598 9.44732 11.8536 9.35355C11.9473 9.25979 12 9.13261 12 9ZM8.75 4.5C8.30499 4.5 7.86998 4.36804 7.49997 4.12081C7.12996 3.87357 6.84157 3.52217 6.67127 3.11104C6.50097 2.6999 6.45642 2.2475 6.54323 1.81105C6.63005 1.37459 6.84434 0.973679 7.15901 0.659011C7.47368 0.344343 7.87459 0.130051 8.31105 0.0432341C8.7475 -0.0435826 9.1999 0.000974894 9.61104 0.171272C10.0222 0.341569 10.3736 0.629957 10.6208 0.999968C10.868 1.36998 11 1.80499 11 2.25C10.9993 2.84653 10.7621 3.41845 10.3403 3.84026C9.91845 4.26207 9.34653 4.49934 8.75 4.5V4.5ZM8.75 1C8.50277 1 8.2611 1.07331 8.05554 1.21066C7.84998 1.34802 7.68976 1.54324 7.59515 1.77165C7.50054 2.00005 7.47579 2.25139 7.52402 2.49386C7.57225 2.73634 7.6913 2.95907 7.86612 3.13388C8.04093 3.3087 8.26366 3.42775 8.50614 3.47598C8.74861 3.52421 8.99995 3.49946 9.22835 3.40485C9.45676 3.31024 9.65199 3.15002 9.78934 2.94446C9.92669 2.7389 10 2.49723 10 2.25C10 1.91848 9.8683 1.60054 9.63388 1.36612C9.39946 1.1317 9.08152 1 8.75 1V1Z" fill="white"/>
</svg>
